{"accessors" : [{"bufferView" : 0, "byteOffset" : 0, "componentType" : 5125, "count" : 134532, "type" : "SCALAR", "max" : [79933], "min" : [0]}, {"bufferView" : 1, "byteOffset" : 0, "componentType" : 5126, "count" : 79934, "type" : "VEC3", "max" : [11.96167278289795, 3.9959330558776855, 11.93837833404541], "min" : [-11.930546760559082, -0.08924800157546997, -12.15106201171875], "name" : "POSITION"}, {"bufferView" : 1, "byteOffset" : 12, "componentType" : 5126, "count" : 79934, "type" : "VEC2", "max" : [1, 1], "min" : [0, 0], "name" : "TEXCOORD_0"}], "asset" : {"generator" : "Aspose.3D 25.3.0", "version" : "2.0"}, "buffers" : [{"uri" : "data:application/octet-stream;base64,", "byteLength" : 2136816}], "bufferViews" : [{"buffer" : 0, "byteOffset" : 0, "byteLength" : 538128, "target" : 34963}, {"buffer" : 0, "byteOffset" : 538132, "byteLength" : 1598680, "byteStride" : 20, "target" : 34962}], "meshes" : [{"primitives" : [{"attributes" : {"POSITION" : 1, "TEXCOORD_0" : 2}, "indices" : 0, "mode" : 4}], "name" : ""}], "nodes" : [{"mesh" : 0, "name" : ""}], "scene" : 0, "scenes" : [{"nodes" : [0]}]}